<svg width="140" height="29" viewBox="0 0 140 29" fill="none" xmlns="http://www.w3.org/2000/svg">
<path d="M9.95 22.95C8.83333 22.95 7.85 22.7167 7 22.25C6.15 21.7667 5.48333 21.0667 5 20.15C4.51667 19.2333 4.25 18.125 4.2 16.825H4.725V22.5H1.975V4.25H5.45V13.375L4.525 14.8C4.59167 13.4 4.86667 12.2333 5.35 11.3C5.85 10.3667 6.51667 9.66667 7.35 9.2C8.18333 8.73333 9.125 8.5 10.175 8.5C11.1083 8.5 11.9583 8.675 12.725 9.025C13.4917 9.375 14.15 9.86667 14.7 10.5C15.25 11.1167 15.6667 11.8417 15.95 12.675C16.25 13.5083 16.4 14.4167 16.4 15.4V15.925C16.4 16.9083 16.25 17.825 15.95 18.675C15.65 19.525 15.2167 20.275 14.65 20.925C14.0833 21.5583 13.4 22.0583 12.6 22.425C11.8167 22.775 10.9333 22.95 9.95 22.95ZM9.175 20.025C9.925 20.025 10.575 19.8417 11.125 19.475C11.6917 19.0917 12.1333 18.575 12.45 17.925C12.7667 17.275 12.925 16.525 12.925 15.675C12.925 14.8083 12.7667 14.0583 12.45 13.425C12.1333 12.7917 11.6917 12.3 11.125 11.95C10.575 11.6 9.925 11.425 9.175 11.425C8.49167 11.425 7.85833 11.575 7.275 11.875C6.70833 12.175 6.24167 12.6167 5.875 13.2C5.525 13.7833 5.35 14.4833 5.35 15.3V16.3C5.35 17.0833 5.53333 17.75 5.9 18.3C6.26667 18.85 6.74167 19.275 7.325 19.575C7.90833 19.875 8.525 20.025 9.175 20.025ZM19.4555 22.5V8.925H22.2055V14.675H22.1305C22.1305 12.725 22.5471 11.25 23.3805 10.25C24.2138 9.25 25.4388 8.75 27.0555 8.75H27.5555V11.775H26.6055C25.4388 11.775 24.5305 12.0917 23.8805 12.725C23.2471 13.3417 22.9305 14.2417 22.9305 15.425V22.5H19.4555ZM38.032 22.5V18.475H37.457V14C37.457 13.2167 37.2654 12.6333 36.882 12.25C36.4987 11.8667 35.907 11.675 35.107 11.675C34.6904 11.675 34.1904 11.6833 33.607 11.7C33.0237 11.7167 32.432 11.7417 31.832 11.775C31.2487 11.7917 30.7237 11.8167 30.257 11.85V8.9C30.6404 8.86667 31.0737 8.83333 31.557 8.8C32.0404 8.76667 32.532 8.75 33.032 8.75C33.5487 8.73333 34.032 8.725 34.482 8.725C35.882 8.725 37.0404 8.90833 37.957 9.275C38.8904 9.64167 39.5904 10.2167 40.057 11C40.5404 11.7833 40.782 12.8083 40.782 14.075V22.5H38.032ZM33.657 22.85C32.6737 22.85 31.807 22.675 31.057 22.325C30.3237 21.975 29.7487 21.475 29.332 20.825C28.932 20.175 28.732 19.3917 28.732 18.475C28.732 17.475 28.9737 16.6583 29.457 16.025C29.957 15.3917 30.6487 14.9167 31.532 14.6C32.432 14.2833 33.482 14.125 34.682 14.125H37.832V16.2H34.632C33.832 16.2 33.2154 16.4 32.782 16.8C32.3654 17.1833 32.157 17.6833 32.157 18.3C32.157 18.9167 32.3654 19.4167 32.782 19.8C33.2154 20.1833 33.832 20.375 34.632 20.375C35.1154 20.375 35.557 20.2917 35.957 20.125C36.3737 19.9417 36.7154 19.6417 36.982 19.225C37.2654 18.7917 37.4237 18.2083 37.457 17.475L38.307 18.45C38.2237 19.4 37.9904 20.2 37.607 20.85C37.2404 21.5 36.7237 22 36.057 22.35C35.407 22.6833 34.607 22.85 33.657 22.85ZM44.5043 22.5V8.925H47.2543V14.75H47.0043C47.0043 13.3667 47.1876 12.2167 47.5543 11.3C47.921 10.3667 48.4626 9.66667 49.1793 9.2C49.9126 8.73333 50.821 8.5 51.9043 8.5H52.0543C53.671 8.5 54.896 9.025 55.7293 10.075C56.5626 11.1083 56.9793 12.6583 56.9793 14.725V22.5H53.5043V14.425C53.5043 13.5917 53.2626 12.9167 52.7793 12.4C52.3126 11.8833 51.6626 11.625 50.8293 11.625C49.9793 11.625 49.2876 11.8917 48.7543 12.425C48.2376 12.9417 47.9793 13.6417 47.9793 14.525V22.5H44.5043ZM66.3402 22.95C65.3902 22.95 64.5152 22.775 63.7152 22.425C62.9152 22.075 62.2236 21.5833 61.6402 20.95C61.0569 20.3167 60.6069 19.5833 60.2902 18.75C59.9736 17.9 59.8152 16.9833 59.8152 16V15.475C59.8152 14.5083 59.9652 13.6 60.2652 12.75C60.5819 11.9 61.0152 11.1583 61.5652 10.525C62.1319 9.89167 62.8069 9.4 63.5902 9.05C64.3902 8.68333 65.2736 8.5 66.2402 8.5C67.3069 8.5 68.2402 8.73333 69.0402 9.2C69.8569 9.65 70.5069 10.3333 70.9902 11.25C71.4736 12.1667 71.7402 13.3167 71.7902 14.7L70.7652 13.5V4.25H74.2402V22.5H71.4902V16.725H72.0902C72.0402 18.1083 71.7569 19.2667 71.2402 20.2C70.7236 21.1167 70.0402 21.8083 69.1902 22.275C68.3569 22.725 67.4069 22.95 66.3402 22.95ZM67.1152 20.025C67.7986 20.025 68.4236 19.875 68.9902 19.575C69.5569 19.2583 70.0069 18.8083 70.3402 18.225C70.6902 17.625 70.8652 16.925 70.8652 16.125V15.125C70.8652 14.325 70.6902 13.6583 70.3402 13.125C69.9902 12.575 69.5319 12.1583 68.9652 11.875C68.3986 11.575 67.7819 11.425 67.1152 11.425C66.3652 11.425 65.6986 11.6083 65.1152 11.975C64.5486 12.325 64.0986 12.825 63.7652 13.475C63.4486 14.125 63.2902 14.8833 63.2902 15.75C63.2902 16.6167 63.4569 17.375 63.7902 18.025C64.1236 18.6583 64.5736 19.15 65.1402 19.5C65.7236 19.85 66.3819 20.025 67.1152 20.025ZM78.1957 27.5V8.925H80.9457V14.775L80.5207 14.75C80.5874 13.3667 80.8707 12.2083 81.3707 11.275C81.8874 10.3417 82.5707 9.65 83.4207 9.2C84.2707 8.73333 85.2207 8.5 86.2707 8.5C87.2374 8.5 88.104 8.675 88.8707 9.025C89.654 9.375 90.3207 9.86667 90.8707 10.5C91.4374 11.1333 91.8707 11.875 92.1707 12.725C92.4707 13.5583 92.6207 14.4583 92.6207 15.425V15.95C92.6207 16.9333 92.4707 17.85 92.1707 18.7C91.8874 19.5333 91.4624 20.275 90.8957 20.925C90.3457 21.5583 89.679 22.0583 88.8957 22.425C88.1124 22.775 87.2374 22.95 86.2707 22.95C85.254 22.95 84.3207 22.7417 83.4707 22.325C82.6374 21.8917 81.9624 21.2333 81.4457 20.35C80.929 19.45 80.6374 18.2917 80.5707 16.875L81.6707 18.55V27.5H78.1957ZM85.3957 20.025C86.1457 20.025 86.7957 19.8417 87.3457 19.475C87.9124 19.1083 88.354 18.6 88.6707 17.95C88.9874 17.2833 89.1457 16.5333 89.1457 15.7C89.1457 14.8333 88.9874 14.0833 88.6707 13.45C88.354 12.8167 87.9124 12.325 87.3457 11.975C86.7957 11.6083 86.1457 11.425 85.3957 11.425C84.7124 11.425 84.079 11.575 83.4957 11.875C82.929 12.175 82.4624 12.6167 82.0957 13.2C81.7457 13.7833 81.5707 14.4833 81.5707 15.3V16.3C81.5707 17.0833 81.754 17.75 82.1207 18.3C82.4874 18.85 82.9624 19.275 83.5457 19.575C84.129 19.875 84.7457 20.025 85.3957 20.025ZM103.901 22.5V18.475H103.326V14C103.326 13.2167 103.135 12.6333 102.751 12.25C102.368 11.8667 101.776 11.675 100.976 11.675C100.56 11.675 100.06 11.6833 99.4762 11.7C98.8928 11.7167 98.3012 11.7417 97.7012 11.775C97.1178 11.7917 96.5928 11.8167 96.1262 11.85V8.9C96.5095 8.86667 96.9428 8.83333 97.4262 8.8C97.9095 8.76667 98.4012 8.75 98.9012 8.75C99.4178 8.73333 99.9012 8.725 100.351 8.725C101.751 8.725 102.91 8.90833 103.826 9.275C104.76 9.64167 105.46 10.2167 105.926 11C106.41 11.7833 106.651 12.8083 106.651 14.075V22.5H103.901ZM99.5262 22.85C98.5428 22.85 97.6762 22.675 96.9262 22.325C96.1928 21.975 95.6178 21.475 95.2012 20.825C94.8012 20.175 94.6012 19.3917 94.6012 18.475C94.6012 17.475 94.8428 16.6583 95.3262 16.025C95.8262 15.3917 96.5178 14.9167 97.4012 14.6C98.3012 14.2833 99.3512 14.125 100.551 14.125H103.701V16.2H100.501C99.7012 16.2 99.0845 16.4 98.6512 16.8C98.2345 17.1833 98.0262 17.6833 98.0262 18.3C98.0262 18.9167 98.2345 19.4167 98.6512 19.8C99.0845 20.1833 99.7012 20.375 100.501 20.375C100.985 20.375 101.426 20.2917 101.826 20.125C102.243 19.9417 102.585 19.6417 102.851 19.225C103.135 18.7917 103.293 18.2083 103.326 17.475L104.176 18.45C104.093 19.4 103.86 20.2 103.476 20.85C103.11 21.5 102.593 22 101.926 22.35C101.276 22.6833 100.476 22.85 99.5262 22.85ZM116.398 22.975C115.215 22.975 114.19 22.775 113.323 22.375C112.473 21.975 111.757 21.4417 111.173 20.775C110.607 20.1083 110.182 19.3583 109.898 18.525C109.615 17.6917 109.473 16.8417 109.473 15.975V15.5C109.473 14.5833 109.615 13.7083 109.898 12.875C110.198 12.025 110.64 11.275 111.223 10.625C111.807 9.95833 112.523 9.43333 113.373 9.05C114.24 8.65 115.24 8.45 116.373 8.45C117.557 8.45 118.615 8.68333 119.548 9.15C120.482 9.6 121.223 10.2333 121.773 11.05C122.34 11.8667 122.657 12.8167 122.723 13.9H119.348C119.265 13.2 118.965 12.6167 118.448 12.15C117.948 11.6833 117.257 11.45 116.373 11.45C115.607 11.45 114.965 11.6333 114.448 12C113.948 12.3667 113.573 12.875 113.323 13.525C113.073 14.1583 112.948 14.8917 112.948 15.725C112.948 16.525 113.065 17.25 113.298 17.9C113.548 18.55 113.923 19.0583 114.423 19.425C114.94 19.7917 115.598 19.975 116.398 19.975C116.998 19.975 117.515 19.8667 117.948 19.65C118.382 19.4333 118.723 19.1333 118.973 18.75C119.24 18.3667 119.407 17.9333 119.473 17.45H122.848C122.782 18.55 122.457 19.5167 121.873 20.35C121.307 21.1667 120.548 21.8083 119.598 22.275C118.665 22.7417 117.598 22.975 116.398 22.975ZM135.132 22.5L130.582 16.15H128.557L134.332 8.925H137.957L132.632 15.6L132.707 13.85L139.057 22.5H135.132ZM125.632 22.5V4.25H129.107V22.5H125.632Z" fill="black"/>
</svg>
